<?xml version="1.0" encoding="UTF-8"?>
<svg id="Capa_1" data-name="Capa 1" xmlns="http://www.w3.org/2000/svg" viewBox="0 0 50 50">
  <defs>
    <style>
      .cls-1 {
        fill: #fff;
        stroke-width: 0px;
      }
    </style>
  </defs>
  <path class="cls-1" d="m28.76,34.54c1.08-.25,2.12-.43,3.13-.73,3.34-1.01,5.21-3.32,5.78-6.72.29-1.71.37-3.44-.14-5.14-.3-.98-.76-1.86-1.43-2.64-.2-.23-.25-.42-.16-.72.48-1.59.33-3.17-.23-4.71-.06-.15-.33-.35-.47-.33-.68.1-1.38.16-2,.42-.98.41-1.9.99-2.85,1.46-.2.1-.48.17-.7.12-3.11-.74-6.21-.74-9.32,0-.23.05-.54,0-.74-.12-1.34-.83-2.69-1.61-4.28-1.86-.86-.13-.95-.09-1.19.73-.42,1.46-.49,2.92-.05,4.4.04.14,0,.36-.08.47-1.81,2.15-2.12,4.66-1.76,7.32.23,1.71.72,3.31,1.81,4.68,1.38,1.74,3.27,2.56,5.37,3,.59.12,1.18.2,1.83.32-.68.73-1.01,1.56-1.19,2.47-.03.13-.19.29-.33.35-2.24.96-4.24.32-5.54-1.77-.67-1.07-1.56-1.86-2.85-2.09-.24-.04-.51-.03-.76.03-.52.11-.58.38-.2.76.13.14.28.27.45.36,1.01.59,1.74,1.47,2.1,2.55.78,2.35,3.08,3.36,5.55,3.13.47-.05.94-.11,1.49-.18,0,1.32.03,2.6-.01,3.87-.03.71-.7,1.04-1.48.78-1.75-.59-3.4-1.4-4.9-2.49-5.97-4.33-8.93-10.22-8.73-17.58.26-9.47,7.29-17.52,16.61-19.2,10.84-1.95,21.26,5.26,23.33,16.16,1.89,9.92-3.69,19.71-13.12,23.05-1.13.4-1.68,0-1.68-1.2,0-1.68.01-3.36.03-5.04.01-1.44-.22-2.81-1.26-3.9Z"/>
</svg>