<?xml version="1.0" encoding="UTF-8"?>
<svg id="Capa_1" data-name="Capa 1" xmlns="http://www.w3.org/2000/svg" viewBox="0 0 50 50">
  <defs>
    <style>
      .cls-1 {
        fill: #fff;
        stroke-width: 0px;
      }
    </style>
  </defs>
  <polygon class="cls-1" points="16.84 26.56 20.67 26.56 18.76 20.47 16.84 26.56"/>
  <path class="cls-1" d="m33.76,23.1c-2.27,0-2.38,2.52-2.38,2.52h4.75s-.1-2.52-2.37-2.52Z"/>
  <path class="cls-1" d="m39.01,4.94H10.99c-3.34,0-6.05,2.71-6.05,6.05v28.02c0,3.34,2.71,6.05,6.05,6.05h28.02c3.34,0,6.05-2.71,6.05-6.05V10.99c0-3.34-2.71-6.05-6.05-6.05Zm-16.04,28.96l-1.37-4.36h-5.7l-1.37,4.36h-3.82l5.45-17.37h5.18l5.45,17.37h-3.82Zm16.99-6.07l-8.69.1s-.2,3,3.05,3.03c2.22.02,3.95-.45,3.95-.45v2.55c-.97.61-2.26.85-4.45.85-4.37,0-6.89-4.26-6.15-8.68s5.67-6.43,9.17-4.45,3.12,7.07,3.12,7.07Z"/>
</svg>