<?xml version="1.0" encoding="UTF-8"?>
<svg id="Capa_1" data-name="Capa 1" xmlns="http://www.w3.org/2000/svg" viewBox="0 0 50 50">
  <defs>
    <style>
      .cls-1 {
        fill: #fff;
        stroke-width: 0px;
      }
    </style>
  </defs>
  <path class="cls-1" d="m42.54,4.94H7.46c-1.39,0-2.52,1.13-2.52,2.52v35.07c0,1.39,1.13,2.52,2.52,2.52,5.85,0,11.69,0,17.54,0s11.69,0,17.54,0c1.39,0,2.52-1.13,2.52-2.52V7.46c0-1.39-1.13-2.52-2.52-2.52Zm-15.75,25.18h0c0,2.13.01,4.26,0,6.39,0,1.1-.23,2.15-.82,3.11-.66,1.08-1.63,1.73-2.83,2.04-1.47.38-2.95.36-4.39-.16-1.25-.45-2.2-1.27-2.89-2.4-.1-.17-.19-.35-.29-.52-.06-.09-.04-.13.05-.19.85-.51,1.7-1.03,2.56-1.54.13-.08.27-.23.39-.21.12.02.16.23.24.36.25.4.51.8.88,1.11.52.42,1.13.48,1.76.41.46-.05.86-.21,1.14-.59.24-.33.36-.71.37-1.12.13-4.43.02-8.86.05-13.29,0-.12.03-.15.15-.15,1.16,0,2.32,0,3.48,0,.13,0,.15.05.15.16,0,2.2,0,4.4,0,6.6Zm14.9,8.24c-.46,1.4-1.42,2.34-2.75,2.93-.85.38-1.74.56-2.67.6-.19,0-.39.02-.58.03-1.13-.02-2.22-.18-3.27-.6-1.57-.63-2.75-1.69-3.54-3.18-.06-.11.02-.12.07-.15.88-.51,1.77-1.03,2.65-1.54.09-.05.2-.16.28-.15.09.01.13.16.19.25.44.66.97,1.23,1.69,1.6.71.36,1.46.46,2.25.4.49-.04.96-.17,1.38-.44.98-.66,1.06-1.99.17-2.76-.46-.4-1.01-.64-1.56-.89-.8-.37-1.62-.68-2.41-1.07-.83-.41-1.61-.9-2.26-1.58-.74-.77-1.16-1.69-1.3-2.75-.11-.84-.09-1.68.18-2.49.47-1.44,1.44-2.41,2.83-2.98,1-.41,2.04-.5,3.1-.42.75.05,1.49.2,2.17.52,1.01.47,1.76,1.22,2.34,2.15.06.1.18.22.16.31-.02.11-.19.15-.29.21-.83.54-1.67,1.07-2.5,1.61-.1.06-.14.06-.2-.05-.18-.32-.39-.62-.66-.87-.64-.61-1.74-.81-2.55-.46-1.19.51-1.19,2.1-.36,2.78.38.31.8.53,1.23.73,1,.46,2.04.85,3.01,1.37.79.42,1.53.9,2.14,1.56.75.79,1.14,1.74,1.26,2.82.09.85.06,1.69-.21,2.51Z"/>
</svg>