<?xml version="1.0" encoding="UTF-8"?>
<svg id="Capa_1" data-name="Capa 1" xmlns="http://www.w3.org/2000/svg" viewBox="0 0 50 50">
  <defs>
    <style>
      .cls-1 {
        fill: #fff;
        stroke-width: 0px;
      }
    </style>
  </defs>
  <path class="cls-1" d="m7.44,4.94h35.12c-.05.71-.1,1.4-.16,2.09-.55,6.15-1.1,12.3-1.65,18.45-.44,4.98-.88,9.95-1.3,14.93-.04.48-.21.69-.67.82-4.47,1.24-8.93,2.52-13.39,3.77-.25.07-.56.08-.81.01-4.5-1.27-8.99-2.56-13.49-3.82-.37-.1-.51-.26-.55-.63-.25-2.95-.51-5.89-.77-8.83-.34-3.78-.68-7.57-1.01-11.35-.29-3.31-.59-6.62-.88-9.94-.15-1.66-.29-3.33-.43-4.99-.01-.15,0-.31,0-.5Zm23.03,20.63c-.19,1.89-.39,3.69-.56,5.49-.03.31-.17.45-.47.52-1.39.37-2.78.77-4.17,1.13-.19.05-.42.03-.61-.02-1.41-.38-2.81-.78-4.22-1.14-.31-.08-.42-.2-.45-.52-.07-1.03-.19-2.06-.29-3.09h-4.35c.02.32.03.62.05.91.13,1.67.27,3.33.37,5,.02.37.13.54.5.65,2.79.85,5.57,1.73,8.36,2.59.25.08.56.05.81-.02,2.71-.76,5.41-1.54,8.12-2.29.33-.09.44-.25.47-.58.25-2.84.51-5.68.77-8.51.3-3.33.61-6.66.91-9.98.1-1.12.2-2.24.3-3.39H13.95c.12,1.47.24,2.9.36,4.38h16.95c-.14,1.54-.28,3.02-.42,4.56h-11.12c.14,1.47.27,2.86.41,4.3h10.35Z"/>
</svg>