<?xml version="1.0" encoding="UTF-8"?>
<svg id="Capa_1" data-name="Capa 1" xmlns="http://www.w3.org/2000/svg" viewBox="0 0 50 50">
  <defs>
    <style>
      .cls-1 {
        fill: #fff;
        stroke-width: 0px;
      }
    </style>
  </defs>
  <path class="cls-1" d="m25.01,5.04c5.65,0,11.3,0,16.95,0,.39,0,.48.1.45.48-.29,3.08-.55,6.15-.83,9.23-.29,3.3-.59,6.6-.88,9.89-.26,2.98-.52,5.96-.78,8.94-.21,2.36-.43,4.71-.62,7.07-.03.31-.15.41-.43.49-4.51,1.26-9.02,2.52-13.52,3.79-.22.06-.42.07-.65,0-4.53-1.28-9.06-2.55-13.6-3.82-.28-.08-.37-.2-.4-.48-.46-5.34-.94-10.67-1.41-16.01-.4-4.57-.8-9.15-1.2-13.72-.15-1.76-.33-3.52-.47-5.28-.06-.71-.08-.59.53-.59,5.62,0,11.25,0,16.87,0Zm.01,7.35c-3.51,0-7.02,0-10.52,0-.36,0-.44.09-.4.44.12,1.13.2,2.27.3,3.41.27,2.99.54,5.99.79,8.98.03.4.11.53.55.53,4.75-.02,9.49,0,14.24-.02.33,0,.41.07.38.41-.17,1.65-.31,3.3-.44,4.95-.02.29-.11.41-.39.48-1.41.37-2.82.76-4.22,1.15-.18.05-.35.07-.53.02-1.46-.4-2.92-.81-4.38-1.2-.2-.05-.26-.14-.28-.34-.07-.96-.18-1.91-.24-2.87-.03-.41-.14-.56-.58-.55-1.1.04-2.2.01-3.3.01-.57,0-.57,0-.52.56.18,2.05.38,4.1.55,6.15.02.29.12.4.38.48,2.77.77,5.54,1.54,8.31,2.32.16.05.32.08.49.03,2.84-.8,5.67-1.59,8.51-2.38.19-.05.27-.14.28-.34.1-1.28.22-2.55.33-3.83.26-2.99.51-5.99.8-8.98.04-.39-.03-.49-.43-.49-4.96.01-9.91,0-14.87,0-.11,0-.22,0-.33,0-.19.01-.27-.06-.28-.26-.1-1.26-.21-2.52-.34-3.78-.04-.38.05-.49.45-.49,3.8.02,7.6,0,11.4,0,1.49,0,2.98,0,4.47,0,.23,0,.38,0,.4-.31.08-1.21.2-2.41.32-3.62.04-.37-.04-.49-.45-.49-3.48.02-6.96,0-10.44,0Z"/>
</svg>