<?xml version="1.0" encoding="UTF-8"?>
<svg id="Capa_1" data-name="Capa 1" xmlns="http://www.w3.org/2000/svg" viewBox="0 0 50 50">
  <defs>
    <style>
      .cls-1 {
        fill: #fff;
        stroke-width: 0px;
      }
    </style>
  </defs>
  <path class="cls-1" d="m25,45.06h-.08c-.1-.08-.19-.16-.3-.22-1.86-1.02-3.71-2.03-5.57-3.05-3.27-1.79-6.54-3.57-9.8-5.37-.15-.08-.31-.26-.33-.41-.35-2.87-.69-5.74-1.02-8.61-.6-5.14-1.2-10.28-1.81-15.42-.04-.33.05-.47.37-.58,6.05-2.12,12.1-4.24,18.15-6.38.28-.1.51-.09.79,0,6,2.12,12,4.23,18,6.34.18.06.36.14.54.21-.01.16-.02.29-.04.42-.28,2.35-.55,4.7-.83,7.05-.33,2.8-.65,5.61-.98,8.41-.33,2.82-.66,5.63-.98,8.45-.03.26-.11.42-.35.55-2.84,1.54-5.67,3.09-8.5,4.64-2.42,1.32-4.83,2.65-7.25,3.98Zm11.82-9.53c-3.95-8.76-7.87-17.44-11.82-26.21-3.96,8.78-7.88,17.46-11.8,26.15.09.03.12.05.16.05,1.33,0,2.67,0,4,.01.25,0,.29-.15.37-.33.7-1.73,1.41-3.46,2.1-5.19.1-.25.22-.35.51-.35,3.11.01,6.23.01,9.34,0,.28,0,.41.09.51.35.69,1.73,1.4,3.46,2.09,5.2.1.25.22.34.49.33.69-.02,1.39,0,2.08,0,.64,0,1.27,0,1.99,0Z"/>
  <path class="cls-1" d="m24.99,17.83c1.18,2.8,2.31,5.48,3.46,8.2h-6.91c1.15-2.72,2.28-5.41,3.45-8.2Z"/>
</svg>