<?xml version="1.0" encoding="UTF-8"?>
<svg id="Capa_1" data-name="Capa 1" xmlns="http://www.w3.org/2000/svg" viewBox="0 0 50 50">
  <defs>
    <style>
      .cls-1 {
        fill: #fff;
        stroke-width: 0px;
      }
    </style>
  </defs>
  <path class="cls-1" d="m46.15,23.12c-1.31-1.55-1.73-3.4-1.79-5.35-.07-2.35.13-4.71-.12-7.05-.14-1.38-.48-2.73-1.34-3.85-.91-1.17-2.02-1.93-3.65-1.93-9.64.04-19.28.04-28.92,0-1.35,0-2.34.59-3.18,1.49-1.24,1.32-1.6,3.01-1.72,4.73-.15,2.35.03,4.7-.11,7.05-.15,2.68-1.13,4.9-3.45,6.4-.17.11-.39.16-.5.39.12.08.23.16.35.24,1.7,1.08,2.8,2.58,3.31,4.54.28,1.06.3,2.15.35,3.23.08,2.17-.14,4.35.13,6.52.15,1.23.47,2.43,1.21,3.45.81,1.12,1.87,2.04,3.31,2.04,9.88.04,19.76.02,29.64.02.19,0,.39,0,.57-.06,1.35-.48,2.42-1.29,3.09-2.58.75-1.45.99-3.03,1.03-4.64.05-2.16-.1-4.32.08-6.48.17-2.05.92-3.85,2.53-5.21.5-.42,1.07-.73,1.66-1.09-.95-.51-1.8-1.07-2.47-1.86Zm-32.02-5.07q.8,0,.8.79t-.7.68q-.96.02-.97-.89,0-.59.86-.59Zm.84,7.61h0c0,1.22,0,2.43,0,3.65,0,1.87-1.17,2.62-2.86,2.45-.3-.03-.5-.11-.39-.47.03-.11.03-.22.03-.33-.02-.42.03-.67.59-.56.49.1.82-.2.92-.7.05-.22.05-.44.05-.67,0-2.42.01-4.83,0-7.25,0-.37.1-.45.45-.45,1.22.02,1.22,0,1.22,1.2v3.12Zm7.13,2.4c-1.08,1.14-3.85,1.15-4.94.02-.35-.36-.55-.81-.65-1.31-.05-.27.03-.35.29-.33.21.01.42,0,.62,0,.39-.01.76-.07.81.51.02.25.27.42.52.53.54.24,1.09.24,1.64.07.35-.11.57-.34.6-.73.03-.38-.17-.64-.49-.81-.4-.21-.85-.29-1.28-.39-.52-.12-1.02-.28-1.49-.53-1.03-.57-1.32-1.79-.66-2.76,1.08-1.59,4.22-1.51,5.21.13,0,.01.02.02.03.04.18.31.36.69.22.99-.11.24-.53.03-.74.09-.21,0-.35-.01-.5,0-.26.03-.37-.05-.45-.33-.12-.44-.5-.69-.94-.77-.49-.08-.97-.05-1.33.35-.39.44-.24,1.07.3,1.31.5.22,1.05.27,1.57.42.63.18,1.27.37,1.73.88.64.71.6,1.9-.09,2.62Zm8.48-2.14c-.32,2.61-3.16,3.92-5.35,2.47-.66-.44-1.03-1.11-1.24-1.86-.26-.96-.26-1.94,0-2.9.44-1.65,1.79-2.56,3.55-2.42,1.68.13,2.85,1.29,3.05,3.03.03.27.04.54.05.82-.02.29-.02.57-.06.86Zm7.76,2.6c0,.22-.09.29-.29.26-.03,0-.06,0-.1,0-.41-.01-.95.13-1.21-.07-.27-.22-.08-.78-.09-1.19-.01-1.15,0-2.3,0-3.46,0-.78-.26-1.23-.77-1.4-.72-.24-1.58,0-2.01.55-.14.17-.12.35-.12.54,0,1.54-.01,3.07,0,4.61,0,.33-.08.46-.42.42-.41-.05-.96.18-1.19-.1-.2-.24-.06-.76-.06-1.16,0-1.9.01-3.81-.01-5.71,0-.39.12-.48.48-.47,1,.02,1,0,1.18,1.01.45-.61.97-.97,1.65-1.1,1.56-.29,2.75.55,2.89,2.13.15,1.71.03,3.42.06,5.14Z"/>
  <path class="cls-1" d="m27.2,22.55c-.74,0-1.23.36-1.51,1.11-.17.46-.22.93-.2,1.43-.03.47.04.95.2,1.4.25.71.76,1.08,1.5,1.09.73.02,1.26-.31,1.53-1.02.37-.98.37-1.98.02-2.96-.27-.74-.79-1.07-1.53-1.06Z"/>
</svg>