<?xml version="1.0" encoding="UTF-8"?>
<svg id="Capa_1" data-name="Capa 1" xmlns="http://www.w3.org/2000/svg" viewBox="0 0 50 50">
  <defs>
    <style>
      .cls-1 {
        fill: #fff;
        stroke-width: 0px;
      }
    </style>
  </defs>
  <path class="cls-1" d="m20.49,19.79h-3.16v5.04h3.16c1.39,0,2.52-1.13,2.52-2.52s-1.13-2.52-2.52-2.52Z"/>
  <path class="cls-1" d="m39.01,4.94H10.99c-3.34,0-6.05,2.71-6.05,6.05v28.02c0,3.34,2.71,6.05,6.05,6.05h28.02c3.34,0,6.05-2.71,6.05-6.05V10.99c0-3.34-2.71-6.05-6.05-6.05Zm-18.52,23.25h-3.16v5.61h-3.29v-17.37h6.46c3.25,0,5.88,2.63,5.88,5.88s-2.63,5.88-5.88,5.88Zm11.5,6.57c-1.6,0-3.17-.36-4.31-.99l-.49-.27,1.11-3.15.77.47c.66.41,1.88.84,2.98.84.61,0,2.02-.13,2.02-1.29,0-.6-.16-1.11-2.15-1.8-3.46-1.15-4.18-3-4.18-4.35,0-2.62,2.34-4.52,5.56-4.52,1.39,0,2.78.33,3.82.91l.5.28-1.12,3.04-.76-.45c-.34-.2-1.25-.66-2.5-.66-1,0-1.64.44-1.64,1.13,0,.58.31.93,2.22,1.61,1.93.69,4.15,1.83,4.15,4.59s-2.34,4.61-5.97,4.61Z"/>
</svg>