<?xml version="1.0" encoding="UTF-8"?>
<svg id="Capa_1" data-name="Capa 1" xmlns="http://www.w3.org/2000/svg" viewBox="0 0 50 50">
  <defs>
    <style>
      .cls-1 {
        fill: #fff;
        stroke-width: 0px;
      }
    </style>
  </defs>
  <path class="cls-1" d="m38.06,31.4c.36,1.44.77,2.85,1.07,4.29.39,1.87.59,3.77.14,5.66-.4,1.7-1.28,3.03-3.08,3.51-1.25.33-2.45.05-3.6-.4-1.95-.76-3.64-1.96-5.21-3.33-.72-.63-1.42-1.28-2.15-1.94-.66.61-1.3,1.22-1.97,1.8-1.81,1.58-3.74,2.98-6.07,3.7-1.32.41-2.64.5-3.9-.23-1.3-.76-1.87-2-2.15-3.4-.33-1.66-.2-3.32.13-4.95.31-1.52.71-3.02,1.09-4.6-.32-.09-.71-.19-1.1-.31-2.03-.61-3.99-1.37-5.74-2.6-.75-.53-1.44-1.14-1.92-1.94-1.06-1.74-.8-3.58.75-5.15,1.24-1.25,2.76-2.07,4.38-2.7,1.11-.43,2.25-.8,3.39-1.19-.25-1.04-.55-2.11-.77-3.19-.36-1.8-.59-3.62-.22-5.46.28-1.42.87-2.66,2.19-3.43.99-.57,2.06-.62,3.15-.39,2.02.42,3.74,1.46,5.34,2.71,1.18.92,2.29,1.94,3.45,2.94.7-.64,1.42-1.32,2.17-1.96,1.77-1.51,3.65-2.86,5.92-3.53,1.48-.44,2.95-.47,4.25.53,1.05.81,1.53,1.97,1.75,3.24.3,1.75.13,3.48-.22,5.2-.24,1.17-.54,2.32-.82,3.47,1.11.41,2.25.77,3.35,1.23,1.56.66,3.04,1.48,4.18,2.78,1.89,2.16,1.36,4.48-.62,6.22-1.72,1.51-3.8,2.34-5.93,3.05-.43.14-.87.26-1.24.37Zm-13.11-13.42s0,.07,0,.1c-1,0-2,0-3.01,0-.29,0-.47.12-.62.36-1.29,2.09-2.59,4.18-3.87,6.27-.09.14-.09.43,0,.57,1.09,1.83,2.2,3.64,3.32,5.45.09.14.3.25.47.27.41.05.83.05,1.24.05,2.3-.03,4.61-.07,6.91-.12.1,0,.24-.09.3-.18,1.13-1.84,2.25-3.68,3.36-5.53.07-.12.07-.35,0-.46-1.32-2.15-2.66-4.3-4-6.44-.07-.11-.24-.2-.37-.2-1.24-.06-2.49-.1-3.73-.14Zm1.58,19.95c.98.85,1.96,1.77,3.01,2.6,1.43,1.13,2.94,2.12,4.75,2.54,1.53.35,2.64-.27,3.08-1.76.35-1.2.31-2.43.19-3.66-.2-1.97-.73-3.86-1.35-5.74-.13,0-.24-.01-.35,0-1.51.23-3.02.45-4.52.7-.29.05-.69.08-.84.27-1.32,1.63-2.6,3.3-3.97,5.05Zm-2.59-.1c-.67-.8-1.33-1.57-1.97-2.36-.63-.79-1.23-1.62-1.86-2.41-.12-.15-.32-.28-.51-.31-1.69-.26-3.39-.5-5.08-.75-.26-.04-.33.09-.4.31-.59,1.78-1.06,3.59-1.24,5.46-.12,1.21-.15,2.43.23,3.62.41,1.29,1.28,1.86,2.62,1.74.91-.08,1.74-.42,2.54-.84,2.15-1.14,3.95-2.72,5.67-4.44Zm12.53-20.54c.06-.19.13-.4.19-.62.66-2.33,1.21-4.68.88-7.13-.18-1.28-.64-2.26-1.74-2.56-.73-.21-1.45-.09-2.14.15-2.86,1-5.01,3-7.13,5.03,1.11,1.38,2.19,2.73,3.28,4.07.09.11.29.15.45.17.69.09,1.39.13,2.09.24,1.37.2,2.73.44,4.12.66Zm-12.51-5.17c-1.09-.94-2.18-1.96-3.35-2.86-1.33-1.03-2.77-1.91-4.45-2.29-1.36-.31-2.44.18-2.93,1.36-.14.35-.23.73-.3,1.11-.24,1.39-.13,2.77.13,4.14.23,1.23.56,2.44.84,3.67.82-.14,1.56-.3,2.3-.4,1.34-.18,2.69-.31,4.04-.5.21-.03.46-.17.59-.34,1.03-1.26,2.05-2.54,3.13-3.89Zm-11.24,7.31c-1.96.54-3.89,1.17-5.62,2.25-.77.48-1.5,1.01-1.97,1.81-.45.75-.43,1.49.04,2.22.53.84,1.32,1.38,2.14,1.88,1.71,1.02,3.58,1.62,5.48,2.15.22.06.33,0,.42-.22.6-1.39,1.22-2.77,1.84-4.14.12-.26.14-.46,0-.72-.23-.42-.44-.86-.63-1.31-.56-1.29-1.12-2.59-1.69-3.92Zm24.97.12c-.04.07-.08.11-.1.16-.75,1.71-1.51,3.41-2.25,5.13-.05.12-.01.3.04.43.47,1.05.96,2.1,1.43,3.15.19.41.36.83.55,1.28.78-.25,1.53-.47,2.26-.73,1.55-.55,3.04-1.23,4.32-2.29,1.57-1.29,1.61-2.89.07-4.17-1.85-1.54-4.07-2.3-6.34-2.97Zm-9.51,13.39h-5.9c1.01,1.23,1.95,2.38,2.94,3.59.99-1.21,1.95-2.37,2.96-3.59Zm-11.94-9.92c.99-1.61,1.94-3.14,2.94-4.76-1.57.24-3.08.47-4.65.71.58,1.38,1.14,2.69,1.71,4.05Zm15.09-4.7c1,1.62,1.92,3.12,2.89,4.7.57-1.33,1.11-2.6,1.68-3.95-1.54-.25-3.01-.49-4.57-.75Zm-12.78,12.47c-.78-1.29-1.53-2.51-2.29-3.78-.47,1.09-.92,2.12-1.4,3.21,1.27.2,2.45.38,3.69.57Zm13.42-.06c1.23-.21,2.39-.4,3.61-.61-.47-1.08-.91-2.07-1.37-3.11-.77,1.27-1.49,2.46-2.25,3.72Zm-4.49-14.55c-.77-.91-1.49-1.77-2.24-2.67-.75.9-1.47,1.76-2.23,2.67h4.47Z"/>
  <path class="cls-1" d="m25.32,28.8c-2.28,0-4.09-1.75-4.08-4.08,0-2.3,1.71-4.07,4.09-4.09,2.3-.02,4.09,1.82,4.08,4.09,0,2.29-1.82,4.09-4.08,4.08Z"/>
</svg>