<?xml version="1.0" encoding="UTF-8"?>
<svg id="Capa_1" data-name="Capa 1" xmlns="http://www.w3.org/2000/svg" viewBox="0 0 50 50">
  <defs>
    <style>
      .cls-1 {
        fill: #fff;
        stroke-width: 0px;
      }
    </style>
  </defs>
  <path class="cls-1" d="m39.01,4.94H10.99c-3.34,0-6.05,2.71-6.05,6.05v28.02c0,3.34,2.71,6.05,6.05,6.05h28.02c3.34,0,6.05-2.71,6.05-6.05V10.99c0-3.34-2.71-6.05-6.05-6.05Zm-17.93,23.25h-3.16v5.61h-3.29v-17.37h6.46c3.25,0,5.88,2.63,5.88,5.88s-2.63,5.88-5.88,5.88Zm15.82-4.35c-2.21-.13-3.57.64-4.21,1.14v8.82h-3.29v-13.08h3.29v1.28c1.69-1.91,4.21-1.91,4.21-1.91v3.75Z"/>
  <path class="cls-1" d="m21.08,19.79h-3.16v5.04h3.16c1.39,0,2.52-1.13,2.52-2.52s-1.13-2.52-2.52-2.52Z"/>
</svg>