<?xml version="1.0" encoding="UTF-8"?>
<svg id="Capa_1" data-name="Capa 1" xmlns="http://www.w3.org/2000/svg" viewBox="0 0 50 50">
  <defs>
    <style>
      .cls-1 {
        fill: #fff;
        stroke-width: 0px;
      }
    </style>
  </defs>
  <path class="cls-1" d="m34.9,24.4c0-.26-.07-.39-.34-.42-1.25-.16-2.36.13-3.31.99-1.26,1.14-1.14,3.27-.65,4.39.3.68.77,1.2,1.46,1.5.79.34,1.61.35,2.44.26.28-.03.39-.15.39-.46-.02-1.04,0-2.09,0-3.13s0-2.09,0-3.13Z"/>
  <path class="cls-1" d="m39.01,4.94H10.99c-3.34,0-6.05,2.71-6.05,6.05v28.02c0,3.34,2.71,6.05,6.05,6.05h28.02c3.34,0,6.05-2.71,6.05-6.05V10.99c0-3.34-2.71-6.05-6.05-6.05Zm-12.9,28.96c-1.22,0-2.44.02-3.66-.02-.18,0-.42-.26-.53-.45-1.01-1.85-2.01-3.71-3-5.57-.04-.07-.08-.13-.15-.25-.09.15-.15.25-.21.36-.99,1.85-1.98,3.69-2.97,5.55-.15.28-.33.4-.65.39-1.1-.02-2.21,0-3.41,0,.09-.21.14-.36.22-.5,1.52-2.5,3.04-5,4.57-7.5.16-.26.16-.45,0-.71-1.49-2.5-2.97-5.01-4.45-7.52-.07-.11-.12-.23-.21-.4.17-.02.28-.04.38-.04,1.08,0,2.16,0,3.24,0,.33,0,.49.13.63.41,1,1.91,2.03,3.81,3.04,5.72.01.02.04.03.1.08.07-.13.14-.26.21-.38.97-1.84,1.93-3.69,2.92-5.53.07-.13.27-.28.41-.28,1.04-.02,2.09-.01,3.13-.01.08,0,.16.03.3.05-.07.14-.11.25-.17.36-1.48,2.44-2.95,4.88-4.44,7.31-.15.25-.16.42,0,.67,1.57,2.55,3.12,5.1,4.68,7.65.06.1.12.19.17.29.11.19.08.32-.17.32Zm12.12-.69c-2.04.8-4.14,1.16-6.31.84-1.94-.29-3.59-1.14-4.49-2.98-1.86-3.78-.34-8.93,4.78-9.88.86-.16,1.74-.15,2.69-.23v-.59c0-1.37,0-2.74,0-4.11,0-.31.1-.42.41-.41.87.02,1.73.02,2.6,0,.39-.01.48.13.48.5-.01,4.75-.01,9.5,0,14.25,0,.71.06,1.43.1,2.14.01.22,0,.39-.25.48Z"/>
</svg>