<?xml version="1.0" encoding="UTF-8"?>
<svg id="Capa_1" data-name="Capa 1" xmlns="http://www.w3.org/2000/svg" viewBox="0 0 50 50">
  <defs>
    <style>
      .cls-1 {
        fill: #fff;
        stroke-width: 0px;
      }
    </style>
  </defs>
  <path class="cls-1" d="m12.87,32.63c-.25.33-.42.75-.52,1.15-.23.89.23,1.35,1.12,1.13,1.43-.36,2.31-1.33,2.77-2.7.24-.71.21-1.44,0-2.22-1.25.78-2.5,1.47-3.37,2.63Z"/>
  <path class="cls-1" d="m22.26,26.44c-.3.16-.6.36-.8.62-.82,1.05-1.29,2.25-1.31,3.66,0,.11-.02.29.03.44.09.28.23.54.34.81.18-.22.43-.41.54-.66.39-.89.75-1.79,1.08-2.7.22-.6.38-1.22.53-1.84.09-.35-.09-.5-.41-.33Z"/>
  <path class="cls-1" d="m28.47,30.28c-.5.58-.98,1.14-1.49,1.73.72-.08,1.54-1.04,1.49-1.73Z"/>
  <path class="cls-1" d="m39.01,4.94H10.99c-3.34,0-6.05,2.71-6.05,6.05v28.02c0,3.34,2.71,6.05,6.05,6.05h28.02c3.34,0,6.05-2.71,6.05-6.05V10.99c0-3.34-2.71-6.05-6.05-6.05Zm.22,27.15c-.1.03-.2.03-.36-.04.07-.09.13-.2.22-.25,1.26-.79,1.05-2.04.26-2.88-.56-.59-1.29-.87-2.07-1.02-1.16-.21-2.31-.18-3.45.27.06.24.11.47.17.7.18.72-.02,1.33-.51,1.87-.57.62-1.29,1-2.1,1.21-.58.15-.99-.18-.98-.78,0-.59.22-1.12.57-1.58.37-.49.79-.94,1.17-1.39-.27-.76-.54-1.55-.83-2.35-.04.06-.09.14-.14.22-.52.88-1.04,1.75-1.55,2.64-.07.12-.07.3-.05.45.07.41.22.8.25,1.21.04.66-.21,1.24-.72,1.68-.76.65-1.64,1-2.65.96-.22,0-.51-.14-.61-.31-.08-.15,0-.48.12-.64.52-.69,1.06-1.37,1.64-2.02.4-.44.47-.82.16-1.37-.27-.49-.38-1.07-.56-1.6-.03-.1-.05-.2-.1-.36-.15.36-.26.66-.4.95-.78,1.6-1.56,3.2-2.37,4.78-.17.33-.45.61-.74.85-.44.36-.95.2-1.15-.32-.09-.23-.14-.48-.16-.72-.03-.33,0-.66-.05-1.01-.17.38-.34.76-.53,1.14-.16.32-.33.63-.5.94-.46.79-1.55.79-2.01-.03-.54-.96-.74-1.97-.59-3.05.07-.54.19-1.07.3-1.64-.57.33-1.12.64-1.7.97.37.79.43,1.62.37,2.47-.17,2.74-2.65,4.91-5.35,4.7-1.13-.09-1.79-.77-1.85-1.9-.06-1.05.31-1.93,1.04-2.67,1.03-1.06,2.28-1.81,3.58-2.5.15-.08.29-.16.51-.27-.32-.24-.59-.45-.87-.65-1.12-.84-2.27-1.64-3.34-2.54-.54-.46-.99-1.06-1.39-1.65-.64-.94-.69-1.96-.26-3.02.53-1.32,1.4-2.39,2.44-3.33,1.95-1.77,4.24-2.97,6.68-3.92,1.79-.7,3.64-1.1,5.57-.91.77.08,1.56.23,2.28.5,2.08.77,2.9,2.46,2.26,4.6-.65,2.16-2.12,3.66-4.12,4.61-1.72.81-3.55,1.17-5.47.97-.94-.1-1.77-.45-2.39-1.2-.15-.18-.22-.44-.32-.66-.02-.05.02-.15.06-.18.04-.03.15-.02.19.02,1.51,1.47,3.28,1.12,5.02.66,1.86-.49,3.45-1.46,4.63-3.01.47-.62.82-1.31.88-2.1.07-.93-.27-1.52-1.13-1.9-.99-.45-2.05-.52-3.11-.41-3.68.41-6.8,2.06-9.57,4.43-.5.42-.92.97-1.26,1.53-.95,1.54-.78,3,.5,4.27.64.63,1.37,1.17,2.05,1.76.53.45,1.07.9,1.59,1.37.16.14.26.14.43.05.89-.5,1.79-.98,2.68-1.48.13-.07.23-.2.34-.3.49-.43.95-.89,1.47-1.28.24-.19.57-.29.88-.36.66-.16,1.16.19,1.25.86.04.34,0,.68,0,1.05.08-.04.14-.09.19-.08.24.03.52.02.69.15.11.08.13.39.09.57-.22.97-.48,1.93-.7,2.9-.06.28-.05.58-.07.87.03.01.06.02.09.03.07-.11.16-.22.21-.33.9-1.99,1.8-3.97,2.69-5.96.11-.25.14-.53.23-.78.04-.11.12-.29.2-.3.5-.06,1-.12,1.5-.1.26,0,.31.23.21.48-.29.74-.44,1.51-.25,2.3.09.36.25.71.41,1.17.44-.78.86-1.43,1.19-2.14.35-.73.63-1.5.9-2.27.1-.28.24-.45.54-.48.34-.03.69-.07,1.03-.05.41.02.52.21.37.59-.51,1.3-.37,2.53.39,3.66.67-.17,1.32-.41,1.99-.5,1.47-.2,2.88,0,4.06.99.79.66,1.22,1.5,1.13,2.56-.07.74-.67,1.49-1.38,1.71Z"/>
  <path class="cls-1" d="m31.42,30.97c1.01-.23,1.55-1.19,1.22-2.15-.65.6-1.07,1.28-1.22,2.15Z"/>
</svg>