<?xml version="1.0" encoding="UTF-8"?>
<svg id="Capa_1" data-name="Capa 1" xmlns="http://www.w3.org/2000/svg" viewBox="0 0 50 50">
  <defs>
    <style>
      .cls-1 {
        fill: #fff;
        stroke-width: 0px;
      }
    </style>
  </defs>
  <path class="cls-1" d="m24.09,45.06c-.85-.1-1.71-.16-2.55-.32-7.69-1.5-13.19-5.78-15.89-13.17-2.33-6.37-1.4-12.5,2.55-18.03,3.68-5.16,8.83-7.92,15.13-8.51,2.73-.26,5.42.06,8.03.89.73.23,1.36.64,1.8,1.3.48.73.42,1.42-.18,2.05-.69.73-1.57,1.2-2.51,1.47-1.47.41-2.97.74-4.46,1.04-3.08.6-6.1,1.38-8.91,2.83-2.14,1.11-4.06,2.5-5.74,4.25-1.99,2.07-3.03,4.58-3.54,7.37-.74,4.1.53,7.6,3.19,10.68,1.79,2.08,3.88,3.81,6.53,4.61,5.09,1.54,9.75.7,13.89-2.75,2.74-2.28,4.36-5.25,5.56-8.53.97-2.67,1.53-5.42,1.86-8.23.16-1.38.58-2.7,1.16-3.96.33-.71.85-1.23,1.54-1.59,1.03-.54,1.96-.26,2.44.8.35.78.66,1.59.89,2.41,2.39,8.52-1.15,17.54-8.67,22.2-3.02,1.87-6.29,2.93-9.83,3.15-.12,0-.23.04-.35.07h-1.93Z"/>
  <path class="cls-1" d="m34.58,7.83c3.36,1.39,5.86,3.73,7.47,7.04-.43.21-.86.39-1.26.63-1.37.81-2.14,2.08-2.5,3.57-.35,1.44-.57,2.92-.81,4.39-.72,4.44-2.14,8.61-4.74,12.33-.17.25-.38.38-.68.44-7.18,1.56-15.11-2.11-17.98-9.32-1.11-2.78-1.3-5.63-.6-8.53.05-.19.19-.38.35-.51,2.68-2.13,5.74-3.51,9.06-4.31,2.03-.49,4.1-.85,6.14-1.31,1.36-.3,2.71-.68,3.94-1.38.62-.35,1.2-.77,1.42-1.48.15-.48.14-1.02.2-1.57Z"/>
</svg>