<?xml version="1.0" encoding="UTF-8"?>
<svg id="Capa_1" data-name="Capa 1" xmlns="http://www.w3.org/2000/svg" viewBox="0 0 50 50">
  <defs>
    <style>
      .cls-1 {
        fill: #fff;
        stroke-width: 0px;
      }
    </style>
  </defs>
  <polygon class="cls-1" points="19.93 26.56 23.76 26.56 21.84 20.47 19.93 26.56"/>
  <path class="cls-1" d="m39.01,4.94H10.99c-3.34,0-6.05,2.71-6.05,6.05v28.02c0,3.34,2.71,6.05,6.05,6.05h28.02c3.34,0,6.05-2.71,6.05-6.05V10.99c0-3.34-2.71-6.05-6.05-6.05Zm-12.95,28.96l-1.37-4.36h-5.7l-1.37,4.36h-3.82l5.45-17.37h5.18l5.45,17.37h-3.82Zm9.19,0h-3.25v-13.29h3.25v13.29Zm-1.63-14.29c-1.25,0-2.27-1.01-2.27-2.27s1.01-2.27,2.27-2.27,2.27,1.01,2.27,2.27-1.01,2.27-2.27,2.27Z"/>
</svg>