<?xml version="1.0" encoding="UTF-8"?>
<svg id="Capa_1" data-name="Capa 1" xmlns="http://www.w3.org/2000/svg" viewBox="0 0 50 50">
  <defs>
    <style>
      .cls-1 {
        fill: #fff;
        stroke-width: 0px;
      }
    </style>
  </defs>
  <path class="cls-1" d="m32.33,18.47v-.66c0-1.91,0-3.81,0-5.72,0-.62.12-.69.67-.39.67.37,1.33.76,2.01,1.12.34.18.49.41.49.79,0,3.9,0,7.79,0,11.69,0,.38-.15.62-.47.8-1.28.72-2.55,1.46-3.82,2.2-.31.18-.58.19-.89,0-1.28-.75-2.57-1.5-3.86-2.23-.31-.18-.44-.42-.44-.77,0-1.47.01-2.94,0-4.41,0-.38.15-.62.48-.8,1.15-.65,2.31-1.27,3.42-1.99.63-.41,1.14-.43,1.72.02.17.13.39.2.7.34Zm.05,4.63c-.06-.34,0-.79-.2-.95-.4-.36-.93-.78-1.41-.78-.48,0-.99.44-1.43.76-.14.1-.15.45-.14.68,0,.42-.08.98.14,1.23.34.39.92.78,1.4.78.48,0,1.02-.41,1.42-.76.2-.18.15-.64.22-.96Z"/>
  <path class="cls-1" d="m23.95,23.06c0,.72-.01,1.44,0,2.16,0,.36-.12.6-.43.78-1.29.73-2.58,1.47-3.86,2.23-.32.19-.58.16-.88-.02-1.27-.74-2.54-1.48-3.82-2.2-.33-.18-.48-.42-.48-.8.01-1.46,0-2.91,0-4.37,0-.35.12-.59.44-.77,1.3-.73,2.58-1.47,3.86-2.23.31-.19.57-.18.88,0,1.28.75,2.58,1.47,3.85,2.25.21.13.4.46.41.71.05.75.02,1.5.02,2.26Z"/>
  <path class="cls-1" d="m12.4,23.75c0,1,0,2.01,0,3.01,0,.61-.12.68-.63.38-.68-.39-1.36-.79-2.05-1.16-.36-.19-.49-.46-.48-.85.02-.84,0-1.67.01-2.51.01-.4-.13-.65-.48-.85-1.18-.67-1.34-.68-2.4.15-.15.12-.25.39-.26.6-.03.87-.03,1.74,0,2.61,0,.4-.12.66-.47.85-.72.39-1.42.82-2.13,1.22-.38.21-.53.14-.53-.29-.01-2.09-.02-4.18,0-6.27,0-.2.17-.49.35-.6,1.32-.79,2.65-1.56,3.99-2.3.19-.1.54-.1.73,0,1.33.73,2.65,1.48,3.95,2.27.21.13.39.47.4.72.04,1,.02,2.01.02,3.01h-.01Z"/>
  <path class="cls-1" d="m37.58,23c0-.72.01-1.44,0-2.16,0-.37.12-.62.46-.81,1.28-.72,2.55-1.46,3.82-2.2.33-.2.6-.18.93.01,1.24.73,2.48,1.46,3.73,2.16.37.21.46.48.51.89.1.86-2.09,2.4-2.65,2.71-.37.2-.58.1-.51-.31.17-.97-.32-1.45-1.12-1.83-.36-.17-.6-.14-.96,0-.95.37-1.25,1.01-1.12,1.98.05.35.14.57.45.75,1.24.69,2.47,1.4,3.7,2.11.51.29.5.44-.02.73-.68.39-1.37.76-2.05,1.15-.32.19-.61.18-.93-.01-1.24-.73-2.49-1.44-3.74-2.13-.36-.2-.5-.45-.49-.84.02-.74,0-1.47,0-2.21Z"/>
  <path class="cls-1" d="m22.74,31.05h.7c.01.15.04.29.04.44,0,1.36,0,2.71,0,4.07,0,1.18-.79,1.69-1.89,1.21-.43-.19-.86-.4-1.22-.69-.23-.19-.43-.54-.44-.83-.04-1.45-.02-2.91-.02-4.37,0-.43.19-.72.57-.93,1.24-.7,2.47-1.41,3.69-2.13.39-.23.74-.22,1.13,0,1.23.72,2.45,1.43,3.69,2.13.39.22.56.54.55.98-.01,1.41-.01,2.81,0,4.22,0,.49-.2.81-.62,1.05-1.21.68-2.41,1.38-3.6,2.08-.4.24-.78.25-1.17,0-.41-.26-.83-.5-1.26-.76.44-.38.86-.44,1.29-.06.37.32.7.28,1.12.02,1.02-.64,2.07-1.23,3.12-1.81.3-.17.43-.35.42-.7-.02-1.29-.02-2.58,0-3.86,0-.3-.07-.48-.35-.64-1.14-.63-2.27-1.29-3.39-1.95-.26-.16-.46-.15-.73,0-1.12.67-2.25,1.32-3.39,1.95-.25.14-.35.3-.35.59.01,1.32,0,2.64.02,3.96,0,.2.17.44.34.58.24.2.53.34.82.48.56.25.92.02.93-.6.01-1.29,0-2.58,0-3.86,0-.18,0-.36,0-.58Z"/>
  <path class="cls-1" d="m23.9,33.78c.37-.06.67-.12.8.35.05.17.29.37.46.39.51.05,1.03.07,1.53,0,.17-.02.39-.31.43-.51.02-.12-.25-.38-.43-.42-.5-.13-1.02-.16-1.53-.25-.79-.14-1.15-.49-1.17-1.08-.02-.64.37-1.12,1.14-1.23.52-.08,1.07-.06,1.58.03.7.12,1,.56,1.04,1.34-.35.07-.64.14-.83-.33-.21-.51-1.68-.61-2.03-.19-.22.27-.12.57.28.66.59.13,1.19.19,1.77.33.81.19,1.16.64.95,1.35-.09.33-.38.7-.68.85-.85.41-1.75.38-2.62,0-.54-.23-.73-.62-.7-1.29Z"/>
  <path class="cls-1" d="m43.21,23.01c0,.45-.47.98-.89,1-.41.02-.93-.55-.93-1.01,0-.45.47-.98.9-1,.4-.02.93.56.93,1.01Z"/>
  <path class="cls-1" d="m31.2,30.13v.81c-.11-.14-.18-.23-.28-.36-.07.13-.13.23-.24.41v-.89c.17,0,.33.02.51.03Z"/>
</svg>